<svg width="534" height="534" viewBox="0 0 534 534" fill="none" xmlns="http://www.w3.org/2000/svg">
<path d="M424.408 236.405C338.45 185.356 196.665 180.664 114.607 205.568C101.426 209.566 87.4934 202.129 83.5026 188.951C79.5095 175.765 86.9393 161.839 100.125 157.834C194.324 129.242 350.91 134.764 449.867 193.505C461.722 200.543 465.605 215.85 458.581 227.681C451.55 239.534 436.23 243.443 424.405 236.405M421.592 312.012C415.562 321.799 402.766 324.868 392.993 318.859C321.334 274.811 212.055 262.048 127.272 287.784C116.279 291.103 104.665 284.908 101.326 273.932C99.7344 268.655 100.3 262.963 102.899 258.103C105.498 253.243 109.918 249.611 115.19 248.005C212.04 218.613 332.444 232.847 414.752 283.43C424.525 289.448 427.601 302.249 421.592 312.012ZM388.962 384.624C387.826 386.49 386.333 388.113 384.57 389.401C382.806 390.689 380.805 391.617 378.682 392.13C376.56 392.644 374.356 392.734 372.199 392.395C370.041 392.057 367.971 391.295 366.108 390.156C303.489 351.884 224.669 343.241 131.845 364.444C129.719 364.93 127.517 364.993 125.366 364.628C123.215 364.263 121.156 363.478 119.309 362.318C117.461 361.158 115.86 359.645 114.597 357.865C113.334 356.086 112.435 354.076 111.949 351.949C111.46 349.821 111.395 347.618 111.759 345.465C112.123 343.312 112.908 341.253 114.069 339.404C115.229 337.555 116.744 335.953 118.525 334.691C120.305 333.428 122.318 332.529 124.447 332.045C226.026 308.826 313.159 318.819 383.447 361.769C385.31 362.907 386.931 364.401 388.217 366.166C389.503 367.931 390.428 369.931 390.94 372.054C391.453 374.176 391.542 376.379 391.203 378.536C390.864 380.693 390.1 382.762 388.962 384.624ZM266.662 0C119.393 0 0 119.388 0 266.662C0 413.95 119.393 533.333 266.664 533.333C413.943 533.333 533.333 413.95 533.333 266.662C533.333 119.391 413.943 0 266.662 0Z" fill="#1ED660"/>
</svg>
